<svg width="311" height="310" viewBox="0 0 311 310" fill="none" xmlns="http://www.w3.org/2000/svg">
<path d="M288.846 173.005C155.255 173.005 155.255 173.005 21.6631 173.005C21.6631 98.9395 81.4741 38.8976 155.255 38.8976C229.035 38.8976 288.846 98.9395 288.846 173.005Z" fill="#C78853"/>
<path d="M21.6812 172.234H288.811V274.224C288.811 293.554 273.141 309.224 253.811 309.224H56.6811C37.3512 309.224 21.6812 293.554 21.6812 274.224V172.234Z" fill="#C78853"/>
<ellipse cx="271.309" cy="95.1204" rx="39.2006" ry="39.7164" fill="#C78853"/>
<ellipse cx="39.2006" cy="95.1204" rx="39.2006" ry="39.7164" fill="#C78853"/>
<circle cx="88.7178" cy="124.521" r="10.316" fill="#413030"/>
<ellipse cx="155.255" cy="126.583" rx="43.8428" ry="24.7583" fill="#AF6D35"/>
<circle cx="221.793" cy="124.521" r="10.316" fill="#413030"/>
<ellipse cx="155.255" cy="116.031" rx="14.9581" ry="7.22117" fill="#413030"/>
<path d="M59.9472 78.5917C45.6633 94.6071 42.0101 99.1734 33.2369 118.519C21.7065 110.538 7.61114 98.1395 20.0916 79.9948C30.4211 64.9773 48.4168 70.61 59.9472 78.5917Z" fill="#AB6333"/>
<path d="M250.862 79.0132C265.146 95.0286 268.799 99.5949 277.573 118.941C289.103 110.959 303.198 98.561 290.718 80.4163C280.388 65.3989 262.393 71.0316 250.862 79.0132Z" fill="#AB6333"/>
<path d="M82.1938 227.806C82.1938 211.237 95.6253 197.806 112.194 197.806H198.316C214.885 197.806 228.316 211.237 228.316 227.806V309.224H82.1938V227.806Z" fill="#D4935D"/>
<circle cx="180.826" cy="10.9592" r="10.9592" fill="#6584A8"/>
<path d="M112.02 63.8794C61.7905 77.5784 53.5711 13.6498 126.632 8.17019C165.547 4.71114 239.131 20.9484 248.726 53.6967C249.793 57.3382 249.089 61.2443 247.377 64.6307C235.851 87.4319 221.437 72.8257 208.622 69.4083C194.923 65.7553 162.25 50.1804 112.02 63.8794Z" fill="#6584A8"/>
<path d="M79.7117 67.0546L85.4644 46.5128C86.4945 42.8345 89.9814 40.3976 93.7896 40.6944L173.028 46.87C185.668 47.8551 197.462 53.6053 206.022 62.9568L211.878 69.3529L145.87 65.7817C143.5 65.6535 141.124 65.6942 138.76 65.9035L82.8651 70.8519C80.7753 71.0369 79.1459 69.0748 79.7117 67.0546Z" fill="#55759A"/>
<path d="M204.565 62.1021L193.613 54.7955C187.219 54.7955 100.492 51.0825 84.0319 51.4565L81.2922 60.2414C95.9024 57.5352 197.896 61.1591 204.565 62.1021Z" fill="#FFD979"/>
<path d="M107.765 42.0103H100.459C98.6327 48.4031 97.7194 52.9694 96.8062 69.4082L105.939 68.495C105.635 62.7109 106.304 48.5858 107.765 42.0103Z" fill="#FFD979"/>
<path d="M81.2808 66.6684H124.204M87.6736 45.6633L178.087 49.3164" stroke="white"/>
<path d="M95.8929 42.0103C90.4131 52.0562 89.8045 66.6684 90.4133 70.3215" stroke="white"/>
<path d="M114.157 42.4668C111.418 53.426 111.723 64.3852 112.331 68.0382" stroke="white"/>
<path d="M213.704 70.3214C202.136 63.3197 159.822 48.403 105.939 39.2704L213.704 45.6632V70.3214Z" fill="#6584A8"/>
</svg>
