<svg width="157" height="178" viewBox="0 0 157 178" fill="none" xmlns="http://www.w3.org/2000/svg">
<circle cx="74.6916" cy="103.402" r="73.8338" transform="rotate(-0.479888 74.6916 103.402)" fill="#FFBD62"/>
<path d="M60.1089 43.7475C65.8927 42.8577 69.8969 45.1779 71.2316 47.4025" stroke="#F3A73D" stroke-width="2" stroke-linecap="round"/>
<path d="M119.18 12.6884C107.482 14.2047 86.7131 20.6944 76.501 35.9413C88.7881 22.7389 104.586 17.9019 117.864 18.8973C120.218 19.0738 122.544 14.7635 120.782 13.1926C120.343 12.8014 119.763 12.6128 119.18 12.6884Z" fill="#77B477"/>
<path d="M71.6766 46.5127C72.6285 41.71 74.0156 39.6519 76.501 35.9413M76.501 35.9413C86.7131 20.6944 107.482 14.2047 119.18 12.6884C119.763 12.6128 120.343 12.8014 120.782 13.1926V13.1926C122.544 14.7635 120.218 19.0738 117.864 18.8973C104.586 17.9019 88.7881 22.7389 76.501 35.9413Z" stroke="#77B477" stroke-width="4" stroke-linecap="round"/>
<path d="M70.6499 47.8653C68.4921 50.4458 68.2985 52.0127 68.1174 53.186" stroke="#F3A73D" stroke-width="2" stroke-linecap="round"/>
<path d="M71.2317 47.4025C78.5727 49.8495 80.1299 56.7456 80.1299 56.7456" stroke="#F3A73D" stroke-width="2" stroke-linecap="round"/>
<path d="M54.9939 51.6625C61.8617 47.0267 67.0756 47.0946 70.7862 47.4027" stroke="#F3A73D" stroke-width="2" stroke-linecap="round"/>
<path d="M102.82 157.295C123.286 146.617 131.739 132.38 133.519 122.592" stroke="#FFCB82" stroke-width="10" stroke-linecap="round"/>
<circle cx="136.189" cy="108.8" r="4.00419" fill="#FFCB82"/>
<path d="M61.8887 103.906C74.3462 111.914 86.8037 103.906 87.2486 103.906" stroke="#423131" stroke-width="4" stroke-linecap="round"/>
<circle cx="34.1142" cy="66.1142" r="3.11423" fill="#FFB348"/>
<circle cx="17.8424" cy="79.4359" r="2.22445" fill="#FFB348"/>
<circle cx="23.1814" cy="69.648" r="4.89401" fill="#FFB348"/>
<path d="M154.745 47.8966C119.297 40.7119 111.543 12.9254 78.0316 36.2699C76.5808 37.2806 76.3618 39.352 77.6212 40.5931C98.8679 61.5321 136.656 67.0447 154.855 48.2321C154.965 48.1189 154.899 47.9279 154.745 47.8966Z" fill="#77B477"/>
<path d="M118.392 20.2629C92.5874 21.1527 77.0156 34.0551 73.4563 46.5126" stroke="#69A269" stroke-width="1.5" stroke-linecap="round"/>
<path d="M72.5664 47.4025C80.1299 46.5126 79.685 46.9576 83.2443 48.2923" stroke="#F3A73D" stroke-width="2" stroke-linecap="round"/>
<path d="M77.0156 38.9492C97.0366 34.5001 108.566 41.786 113.32 43.5445C118.074 45.3031 136.672 51.8147 153.095 48.7372" stroke="#69A269" stroke-width="1.5" stroke-linecap="round"/>
<circle cx="39.6478" cy="97.6478" r="5.64784" fill="#413030"/>
<circle cx="112.505" cy="97.6478" r="5.64784" fill="#413030"/>
</svg>
