<svg width="229" height="255" viewBox="0 0 229 255" fill="none" xmlns="http://www.w3.org/2000/svg">
<circle cx="110.132" cy="144.68" r="91.5" transform="rotate(13.3311 110.132 144.68)" fill="#F9A52F"/>
<circle cx="106.557" cy="138.884" r="86.6842" transform="rotate(13.3311 106.557 138.884)" fill="#FFBD62"/>
<path d="M202.354 47.7099C198.531 41.9959 151.374 45.5704 140.896 77.5715C140.873 77.6408 140.926 77.7124 140.998 77.7041C161.241 75.3835 199.256 81.5818 202.381 47.8306C202.385 47.7875 202.378 47.7458 202.354 47.7099Z" fill="#8CB88C"/>
<path d="M200.197 46.4758C183.126 44.0034 146.82 47.0922 136.384 79.0661C136.361 79.1354 136.413 79.2076 136.486 79.1992C156.7 76.8477 195.518 76.064 200.358 46.7081C200.376 46.5984 200.307 46.4918 200.197 46.4758Z" fill="#99C399"/>
<path d="M130.749 20.4215C145.659 37.6273 140.037 60.1958 134.321 70.8552" stroke="#B59261" stroke-width="6" stroke-linecap="round"/>
</svg>
